<svg width="173" height="165" viewBox="0 0 173 165" fill="none" xmlns="http://www.w3.org/2000/svg">
<g clip-path="url(#clip0_990_2700)">
<g filter="url(#filter0_d_990_2700)">
<path d="M146.381 1.25232L115.991 59.7393L104.293 82.4086L98.9775 93.2899L100.264 102.358L103.376 118.226C119.913 114.543 143.788 75.6295 152.328 63.626C176.465 29.7008 177.195 14.114 166.104 24.3751C158.969 30.9768 155.485 6.42932 146.381 1.25232Z" fill="url(#paint0_linear_990_2700)"/>
<path d="M26.9878 0.442017L57.3784 58.929L69.0758 81.5983L74.3918 92.4796L73.1056 101.547L69.9934 117.416C53.4563 113.733 29.5815 74.8192 21.0413 62.8157C-3.09584 28.8905 -3.82604 13.3037 7.26488 23.5648C14.4006 30.1665 17.8847 5.61901 26.9878 0.442017Z" fill="url(#paint1_linear_990_2700)"/>
<path d="M66.3627 127.379L68.9994 135.668H69.1006L71.7426 127.379H74.2995L70.5388 138.288H67.5665L63.8005 127.379H66.3627ZM75.5699 138.288V130.107H77.839V138.288H75.5699ZM76.7098 129.052C76.3724 129.052 76.083 128.94 75.8415 128.716C75.6036 128.489 75.4846 128.217 75.4846 127.901C75.4846 127.589 75.6036 127.321 75.8415 127.097C76.083 126.87 76.3724 126.756 76.7098 126.756C77.0471 126.756 77.3348 126.87 77.5727 127.097C77.8142 127.321 77.9349 127.589 77.9349 127.901C77.9349 128.217 77.8142 128.489 77.5727 128.716C77.3348 128.94 77.0471 129.052 76.7098 129.052ZM79.6568 138.288V130.107H81.8567V131.534H81.9419C82.0911 131.026 82.3414 130.643 82.693 130.384C83.0446 130.121 83.4494 129.989 83.9075 129.989C84.0211 129.989 84.1436 129.997 84.275 130.011C84.4064 130.025 84.5218 130.044 84.6213 130.069V132.083C84.5147 132.051 84.3674 132.022 84.1792 131.998C83.9909 131.973 83.8187 131.96 83.6625 131.96C83.3287 131.96 83.0304 132.033 82.7676 132.179C82.5083 132.321 82.3024 132.52 82.1497 132.775C82.0005 133.031 81.926 133.326 81.926 133.66V138.288H79.6568ZM90.5566 130.107V131.811H85.6294V130.107H90.5566ZM86.748 128.146H89.0171V135.774C89.0171 135.984 89.0491 136.147 89.113 136.264C89.1769 136.378 89.2657 136.458 89.3794 136.504C89.4965 136.55 89.6315 136.573 89.7842 136.573C89.8907 136.573 89.9973 136.564 90.1038 136.547C90.2103 136.525 90.292 136.509 90.3488 136.499L90.7057 138.187C90.5921 138.223 90.4323 138.264 90.2263 138.31C90.0203 138.359 89.77 138.39 89.4752 138.4C88.9284 138.422 88.449 138.349 88.037 138.182C87.6286 138.015 87.3108 137.756 87.0835 137.404C86.8563 137.053 86.7444 136.609 86.748 136.073V128.146ZM97.2815 134.805V130.107H99.5507V138.288H97.3721V136.802H97.2868C97.1022 137.282 96.795 137.667 96.3653 137.958C95.9392 138.249 95.4189 138.395 94.8046 138.395C94.2577 138.395 93.7765 138.271 93.3611 138.022C92.9456 137.774 92.6207 137.42 92.3863 136.962C92.1555 136.504 92.0383 135.955 92.0347 135.316V130.107H94.3039V134.911C94.3074 135.394 94.4371 135.776 94.6927 136.057C94.9484 136.337 95.2911 136.477 95.7208 136.477C95.9942 136.477 96.2499 136.415 96.4878 136.291C96.7258 136.163 96.9175 135.975 97.0631 135.726C97.2123 135.478 97.2851 135.171 97.2815 134.805ZM103.699 138.443C103.177 138.443 102.712 138.352 102.303 138.171C101.895 137.987 101.572 137.715 101.334 137.356C101.099 136.994 100.982 136.543 100.982 136.003C100.982 135.549 101.066 135.167 101.233 134.858C101.4 134.549 101.627 134.301 101.914 134.112C102.202 133.924 102.529 133.782 102.895 133.686C103.264 133.59 103.651 133.523 104.056 133.484C104.532 133.434 104.915 133.388 105.206 133.345C105.498 133.299 105.709 133.232 105.84 133.143C105.972 133.054 106.037 132.923 106.037 132.749V132.717C106.037 132.379 105.931 132.118 105.718 131.934C105.508 131.749 105.21 131.657 104.823 131.657C104.414 131.657 104.089 131.747 103.848 131.928C103.607 132.106 103.447 132.33 103.369 132.6L101.27 132.429C101.376 131.932 101.586 131.502 101.898 131.14C102.211 130.774 102.614 130.494 103.108 130.298C103.605 130.1 104.18 130 104.833 130C105.288 130 105.723 130.053 106.138 130.16C106.558 130.266 106.929 130.432 107.252 130.655C107.578 130.879 107.836 131.167 108.024 131.518C108.212 131.866 108.306 132.283 108.306 132.77V138.288H106.154V137.154H106.091C105.959 137.41 105.783 137.635 105.563 137.83C105.343 138.022 105.078 138.173 104.77 138.283C104.461 138.39 104.104 138.443 103.699 138.443ZM104.349 136.877C104.683 136.877 104.977 136.811 105.233 136.68C105.489 136.545 105.689 136.364 105.835 136.136C105.98 135.909 106.053 135.652 106.053 135.364V134.496C105.982 134.542 105.885 134.585 105.76 134.624C105.64 134.659 105.503 134.693 105.35 134.725C105.197 134.753 105.045 134.78 104.892 134.805C104.739 134.826 104.601 134.846 104.477 134.863C104.21 134.902 103.978 134.965 103.779 135.05C103.58 135.135 103.425 135.25 103.315 135.396C103.205 135.538 103.15 135.716 103.15 135.929C103.15 136.238 103.262 136.474 103.486 136.637C103.713 136.797 104.001 136.877 104.349 136.877ZM112.336 127.379V138.288H110.067V127.379H112.336Z" fill="#176E65"/>
<path d="M57.5913 153.125V164.034H55.2848V153.125H57.5913ZM61.7155 159.304V164.034H59.4463V155.853H61.6089V157.296H61.7048C61.8859 156.82 62.1895 156.444 62.6157 156.167C63.0418 155.886 63.5585 155.746 64.1657 155.746C64.7339 155.746 65.2293 155.87 65.6519 156.119C66.0745 156.368 66.403 156.723 66.6373 157.184C66.8717 157.642 66.9889 158.189 66.9889 158.825V164.034H64.7197V159.23C64.7233 158.729 64.5954 158.338 64.3362 158.058C64.077 157.774 63.7201 157.632 63.2655 157.632C62.9601 157.632 62.6902 157.697 62.4559 157.829C62.225 157.96 62.0439 158.152 61.9125 158.404C61.7847 158.653 61.719 158.953 61.7155 159.304ZM73.1293 155.853V157.557H68.2021V155.853H73.1293ZM69.3207 153.892H71.5898V161.52C71.5898 161.73 71.6218 161.893 71.6857 162.01C71.7496 162.124 71.8384 162.204 71.9521 162.25C72.0692 162.296 72.2042 162.319 72.3569 162.319C72.4634 162.319 72.57 162.31 72.6765 162.293C72.783 162.271 72.8647 162.255 72.9215 162.245L73.2784 163.933C73.1648 163.969 73.005 164.01 72.799 164.056C72.593 164.105 72.3427 164.136 72.0479 164.146C71.5011 164.168 71.0217 164.095 70.6097 163.928C70.2013 163.761 69.8835 163.502 69.6562 163.15C69.429 162.799 69.3171 162.355 69.3207 161.819V153.892ZM78.2482 164.194C77.4066 164.194 76.6822 164.024 76.0749 163.683C75.4712 163.338 75.006 162.852 74.6793 162.223C74.3526 161.591 74.1893 160.844 74.1893 159.981C74.1893 159.139 74.3526 158.401 74.6793 157.765C75.006 157.129 75.4659 156.634 76.0589 156.279C76.6555 155.924 77.3551 155.746 78.1577 155.746C78.6974 155.746 79.1999 155.833 79.6651 156.007C80.1339 156.178 80.5423 156.435 80.8903 156.779C81.2418 157.124 81.5153 157.557 81.7106 158.079C81.9059 158.598 82.0035 159.205 82.0035 159.901V160.524H75.0948V159.118H79.8675C79.8675 158.791 79.7965 158.502 79.6545 158.25C79.5124 157.997 79.3153 157.8 79.0632 157.658C78.8146 157.513 78.5252 157.44 78.195 157.44C77.8505 157.44 77.5451 157.52 77.2788 157.68C77.016 157.836 76.81 158.047 76.6609 158.314C76.5117 158.576 76.4354 158.869 76.4318 159.192V160.529C76.4318 160.934 76.5064 161.284 76.6555 161.579C76.8082 161.874 77.0231 162.101 77.3001 162.261C77.5771 162.42 77.9055 162.5 78.2855 162.5C78.5376 162.5 78.7685 162.465 78.978 162.394C79.1875 162.323 79.3668 162.216 79.516 162.074C79.6651 161.932 79.7788 161.758 79.8569 161.552L81.9556 161.691C81.8491 162.195 81.6307 162.635 81.3004 163.012C80.9737 163.385 80.5511 163.676 80.0327 163.885C79.5178 164.091 78.9229 164.194 78.2482 164.194ZM83.4844 164.034V155.853H85.6843V157.28H85.7695C85.9187 156.772 86.169 156.389 86.5206 156.13C86.8722 155.867 87.277 155.735 87.7351 155.735C87.8487 155.735 87.9712 155.743 88.1026 155.757C88.234 155.771 88.3494 155.79 88.4489 155.815V157.829C88.3423 157.797 88.195 157.768 88.0067 157.744C87.8185 157.719 87.6463 157.706 87.4901 157.706C87.1562 157.706 86.858 157.779 86.5952 157.925C86.3359 158.067 86.13 158.266 85.9773 158.521C85.8281 158.777 85.7535 159.072 85.7535 159.406V164.034H83.4844ZM97.4989 155.853L94.6385 164.034H92.0817L89.2212 155.853H91.6182L93.3175 161.707H93.4027L95.0966 155.853H97.4989ZM98.6602 164.034V155.853H100.929V164.034H98.6602ZM99.8001 154.798C99.4627 154.798 99.1733 154.686 98.9318 154.462C98.6939 154.235 98.5749 153.963 98.5749 153.647C98.5749 153.335 98.6939 153.067 98.9318 152.843C99.1733 152.616 99.4627 152.502 99.8001 152.502C100.137 152.502 100.425 152.616 100.663 152.843C100.904 153.067 101.025 153.335 101.025 153.647C101.025 153.963 100.904 154.235 100.663 154.462C100.425 154.686 100.137 154.798 99.8001 154.798ZM106.476 164.194C105.634 164.194 104.91 164.024 104.302 163.683C103.699 163.338 103.234 162.852 102.907 162.223C102.58 161.591 102.417 160.844 102.417 159.981C102.417 159.139 102.58 158.401 102.907 157.765C103.234 157.129 103.693 156.634 104.286 156.279C104.883 155.924 105.583 155.746 106.385 155.746C106.925 155.746 107.427 155.833 107.893 156.007C108.361 156.178 108.77 156.435 109.118 156.779C109.469 157.124 109.743 157.557 109.938 158.079C110.133 158.598 110.231 159.205 110.231 159.901V160.524H103.322V159.118H108.095C108.095 158.791 108.024 158.502 107.882 158.25C107.74 157.997 107.543 157.8 107.291 157.658C107.042 157.513 106.753 157.44 106.422 157.44C106.078 157.44 105.773 157.52 105.506 157.68C105.244 157.836 105.038 158.047 104.888 158.314C104.739 158.576 104.663 158.869 104.659 159.192V160.529C104.659 160.934 104.734 161.284 104.883 161.579C105.036 161.874 105.251 162.101 105.528 162.261C105.805 162.42 106.133 162.5 106.513 162.5C106.765 162.5 106.996 162.465 107.206 162.394C107.415 162.323 107.594 162.216 107.744 162.074C107.893 161.932 108.006 161.758 108.084 161.552L110.183 161.691C110.077 162.195 109.858 162.635 109.528 163.012C109.201 163.385 108.779 163.676 108.26 163.885C107.745 164.091 107.15 164.194 106.476 164.194ZM113.267 164.034L111.041 155.853H113.337L114.604 161.35H114.679L116 155.853H118.253L119.595 161.318H119.665L120.911 155.853H123.202L120.98 164.034H118.578L117.172 158.889H117.071L115.664 164.034H113.267Z" fill="#176E65"/>
<path d="M74.4142 118.288C72.6584 118.005 70.9081 117.111 69.6311 117.082C68.9279 117.205 68.3542 117.054 69.6311 117.082C70.9925 116.846 69.5005 116.649 70.0051 113.179C70.2619 111.413 72.0315 99.957 74.7075 82.7354C74.8716 81.6795 76.5705 70.9762 78.4828 58.9503C80.3951 46.9244 81.9597 36.3618 81.9597 35.4778C81.9597 34.3081 80.5675 32.1224 76.8447 27.4477C74.0315 23.915 71.5281 20.706 71.2816 20.3164C70.8079 19.5676 86.372 0.825899 87.2223 1.12113C87.4697 1.20701 91.2376 5.4179 95.5956 10.4787L103.519 19.68L97.6447 27.1487C92.8201 33.2826 91.8251 34.8731 92.0771 36.0491C92.2458 36.8366 93.8297 46.7375 95.5968 58.0511C97.3638 69.3648 99.2275 81.2132 99.7382 84.3811C100.249 87.5489 101.616 96.1778 102.777 103.556C104.833 116.634 103.26 117.491 104.674 117.905C104.067 118.454 102.826 118.131 100.467 118.522C95.5624 119.335 79.2206 119.062 74.4142 118.288Z" fill="#D8CBC0"/>
</g>
</g>
<defs>
<filter id="filter0_d_990_2700" x="-3.6308" y="0.442017" width="180.631" height="171.752" filterUnits="userSpaceOnUse" color-interpolation-filters="sRGB">
<feFlood flood-opacity="0" result="BackgroundImageFix"/>
<feColorMatrix in="SourceAlpha" type="matrix" values="0 0 0 0 0 0 0 0 0 0 0 0 0 0 0 0 0 0 127 0" result="hardAlpha"/>
<feOffset dy="4"/>
<feGaussianBlur stdDeviation="2"/>
<feComposite in2="hardAlpha" operator="out"/>
<feColorMatrix type="matrix" values="0 0 0 0 0 0 0 0 0 0 0 0 0 0 0 0 0 0 0.25 0"/>
<feBlend mode="normal" in2="BackgroundImageFix" result="effect1_dropShadow_990_2700"/>
<feBlend mode="normal" in="SourceGraphic" in2="effect1_dropShadow_990_2700" result="shape"/>
</filter>
<linearGradient id="paint0_linear_990_2700" x1="0.369211" y1="59.3341" x2="173" y2="59.3341" gradientUnits="userSpaceOnUse">
<stop offset="0.706329" stop-color="#176E65" stop-opacity="0.995816"/>
<stop offset="1" stop-color="#176E65" stop-opacity="0"/>
</linearGradient>
<linearGradient id="paint1_linear_990_2700" x1="0.3692" y1="59.3341" x2="173" y2="59.3341" gradientUnits="userSpaceOnUse">
<stop offset="0.706329" stop-color="#176E65" stop-opacity="0.995816"/>
<stop offset="1" stop-color="#176E65" stop-opacity="0"/>
</linearGradient>
<clipPath id="clip0_990_2700">
<rect width="173" height="165" fill="white"/>
</clipPath>
</defs>
</svg>
