<svg width="1440" height="854" viewBox="0 0 1440 854" fill="none" xmlns="http://www.w3.org/2000/svg">
<g clip-path="url(#clip0_903_2668)">
<rect width="1440" height="854" fill="#E2ECED"/>
<path d="M269.048 717.053C399.171 717.053 504.656 656.151 504.656 581.024C504.656 505.897 399.171 444.995 269.048 444.995C138.925 444.995 33.4399 505.897 33.4399 581.024C33.4399 656.151 138.925 717.053 269.048 717.053Z" fill="#6CB6D4"/>
<path d="M404.363 628.224C388.913 619.304 388.913 604.842 404.363 595.922C419.813 587.002 444.861 587.002 460.311 595.922C475.761 604.842 475.761 619.304 460.311 628.224C444.861 637.144 419.813 637.144 404.363 628.224Z" fill="#E0E0E0"/>
<path d="M90.119 629.462L49.479 605.998C47.188 604.675 47.188 602.53 49.479 601.207L285.868 464.728C288.159 463.405 291.874 463.405 294.165 464.728L334.807 488.191C337.098 489.514 337.098 491.659 334.807 492.981L98.416 629.462C96.125 630.785 92.41 630.785 90.119 629.462Z" fill="#E0E0E0"/>
<path d="M236.2 587.644L271.137 567.443C274.738 565.364 276.539 562.639 276.539 559.914C276.539 557.189 276.554 555.054 276.554 555.054L240.305 534.614C238.384 533.505 236.827 530.808 236.827 528.59V485.515L175.804 520.777L175.802 563.851C175.802 566.069 177.359 568.766 179.28 569.875L210.116 587.643C217.319 591.803 228.997 591.802 236.2 587.644Z" fill="#27DEBF"/>
<g opacity="0.6">
<path d="M236.2 587.644L271.137 567.443C274.738 565.364 276.539 562.639 276.539 559.914C276.539 557.189 276.554 555.054 276.554 555.054L240.305 534.614C238.384 533.505 236.827 530.808 236.827 528.59V485.515L175.804 520.777L175.802 563.851C175.802 566.069 177.359 568.766 179.28 569.875L210.116 587.643C217.319 591.803 228.997 591.802 236.2 587.644Z" fill="black"/>
</g>
<path opacity="0.3" d="M190.455 571.48V576.319L179.271 569.874C177.363 568.77 175.797 566.079 175.797 563.85V520.78L187.423 514.073C187.664 517.025 187.925 520.077 188.166 523.049L180.014 527.768V561.421C180.014 563.65 181.56 566.34 183.488 567.445L190.455 571.48Z" fill="black"/>
<path d="M180.012 561.428C180.012 563.646 181.569 566.343 183.49 567.452L210.112 582.787C217.315 586.945 228.994 586.947 236.197 582.79L271.152 562.591C278.356 558.434 278.357 551.693 271.154 547.534L244.515 532.189C242.594 531.08 241.037 528.383 241.037 526.165L241.036 492.508L180.012 527.77V561.428Z" fill="#27DEBF"/>
<path opacity="0.3" d="M180.012 561.428C180.012 563.646 181.569 566.343 183.49 567.452L210.112 582.787C217.315 586.945 228.994 586.947 236.197 582.79L271.152 562.591C278.356 558.434 278.357 551.693 271.154 547.534L244.515 532.189C242.594 531.08 241.037 528.383 241.037 526.165L241.036 492.508L180.012 527.77V561.428Z" fill="black"/>
<path opacity="0.5" d="M251.598 536.283V536.278L244.514 532.188C242.593 531.079 241.036 528.382 241.036 526.164V492.507L180.011 527.769V561.428C180.011 563.646 181.568 566.343 183.489 567.452L190.45 571.471L251.598 536.283Z" fill="black"/>
<path d="M276.548 555.058C276.548 555.058 276.548 557.186 276.548 559.917C276.548 562.648 274.741 565.358 271.147 567.447L236.204 587.636C232.75 589.644 228.273 590.648 223.755 590.728V585.889C228.273 585.829 232.75 584.785 236.204 582.797L271.147 562.587C274.74 560.519 276.548 557.789 276.548 555.058Z" fill="#27DEBF"/>
<path opacity="0.5" d="M276.548 555.058C276.548 555.058 276.548 557.186 276.548 559.917C276.548 562.648 274.741 565.358 271.147 567.447L236.204 587.636C232.75 589.644 228.273 590.648 223.755 590.728V585.889C228.273 585.829 232.75 584.785 236.204 582.797L271.147 562.587C274.74 560.519 276.548 557.789 276.548 555.058Z" fill="black"/>
<path d="M82.0309 603.263C84.2829 604.563 88.0559 604.493 90.4569 603.107C120.458 585.786 296.457 484.175 326.454 466.857C328.855 465.471 330.8 462.1 330.8 459.328V268.414C330.8 265.642 328.974 262.34 326.722 261.04C324.47 259.74 320.698 259.809 318.297 261.196L82.3029 397.446C79.9019 398.832 77.9559 402.203 77.9559 404.976L77.9529 595.889C77.9529 598.661 79.7779 601.962 82.0309 603.263Z" fill="#27DEBF"/>
<path d="M90.4569 603.102L326.453 466.853C328.854 465.467 330.8 462.096 330.8 459.323V268.409C330.8 265.637 328.854 264.513 326.453 265.899L90.4599 402.149C88.0589 403.535 86.1129 406.906 86.1129 409.679L86.1099 600.592C86.1099 603.364 88.0569 604.488 90.4569 603.102Z" fill="#27DEBF"/>
<path opacity="0.5" d="M90.4569 603.102L326.453 466.853C328.854 465.467 330.8 462.096 330.8 459.323V268.409C330.8 265.637 328.854 264.513 326.453 265.899L90.4599 402.149C88.0589 403.535 86.1129 406.906 86.1129 409.679L86.1099 600.592C86.1099 603.364 88.0569 604.488 90.4569 603.102Z" fill="black"/>
<path d="M89.8169 608.064C87.4079 609.128 84.0749 609.088 82.0269 607.903C79.7779 606.598 77.9509 603.305 77.9509 600.514V583.131L86.1029 587.85V605.233C86.1029 607.763 87.7089 608.907 89.8169 608.064Z" fill="#27DEBF"/>
<path opacity="0.5" d="M89.8169 608.064C87.4079 609.128 84.0749 609.088 82.0269 607.903C79.7779 606.598 77.9509 603.305 77.9509 600.514V583.131L86.1029 587.85V605.233C86.1029 607.763 87.7089 608.907 89.8169 608.064Z" fill="#5495FC"/>
<path d="M86.103 587.849L86.11 605.226C86.11 607.998 88.057 609.122 90.457 607.736L326.453 471.487C328.854 470.101 330.8 466.73 330.8 463.957V446.543L86.103 587.849Z" fill="#27DEBF"/>
<path opacity="0.3" d="M86.1099 587.813V605.226C86.1099 607.998 88.0569 609.122 90.4569 607.736L326.453 471.487C328.854 470.101 330.8 466.73 330.8 463.957V446.543L86.1099 587.813Z" fill="#5495FC"/>
<path d="M94.2639 566.041L94.2659 412.386C94.2659 410.723 95.4339 408.7 96.8739 407.868L320.031 279.028C321.472 278.196 322.639 278.871 322.639 280.534L322.646 434.193C322.646 435.856 321.478 437.879 320.038 438.711L96.8729 567.547C95.4319 568.379 94.2639 567.704 94.2639 566.041Z" fill="#27DEBF"/>
<path d="M94.2639 566.041L94.2659 412.386C94.2659 410.723 95.4339 408.7 96.8739 407.868L320.031 279.028C321.472 278.196 322.639 278.871 322.639 280.534L322.646 434.193C322.646 435.856 321.478 437.879 320.038 438.711L96.8729 567.547C95.4319 568.379 94.2639 567.704 94.2639 566.041Z" fill="#263238"/>
<path d="M208.452 522.726C206.199 524.027 204.373 527.19 204.373 529.791C204.373 532.392 206.2 533.446 208.453 532.145C210.706 530.844 212.532 527.681 212.532 525.08C212.531 522.48 210.705 521.426 208.452 522.726Z" fill="#5495FC"/>
<path opacity="0.7" d="M87.3879 405.378C86.6049 406.743 86.1229 408.289 86.1029 409.675V587.85L77.9509 583.131L77.9559 404.976C77.9559 403.591 78.4529 402.045 79.2359 400.68L87.3879 405.378Z" fill="#4BE8AB"/>
<path opacity="0.3" d="M330.756 267.694C330.448 265.453 328.638 264.641 326.449 265.895L90.4599 402.153C89.2669 402.842 88.1879 404.014 87.3859 405.381L79.2329 400.673C80.0249 399.326 81.1039 398.134 82.3069 397.445L318.296 261.197C320.702 259.809 324.464 259.737 326.726 261.043C328.782 262.225 330.478 265.093 330.756 267.694Z" fill="#A2FF7B"/>
<path d="M321.723 278.942C321.155 278.601 320.38 278.613 319.506 279.118L96.8182 407.704C95.1352 408.676 93.7712 411.036 93.7712 412.979L93.7732 565.698C93.7732 566.882 94.2802 567.928 95.0572 568.345C95.5552 568.613 98.1722 570.135 98.9492 570.553C99.4472 570.821 100.056 570.83 100.714 570.451L323.394 441.814C325.078 440.845 326.443 438.485 326.443 436.542V283.083C326.443 282.081 326.08 281.387 325.499 281.082C324.952 280.796 322.284 279.278 321.723 278.942Z" fill="#27DEBF"/>
<path d="M99.7083 570.246C98.8573 570.246 98.1663 569.196 98.1663 567.906V415.187C98.1663 413.437 99.4463 411.219 100.962 410.343L323.647 281.757C324.043 281.528 324.426 281.408 324.757 281.408C325.5 281.408 325.943 282.034 325.943 283.083V436.543C325.943 438.293 324.662 440.509 323.145 441.381L100.464 570.018C100.202 570.169 99.9483 570.246 99.7083 570.246Z" fill="#FAFAFA"/>
<path d="M324.758 281.908C325.354 281.908 325.443 282.644 325.443 283.083V436.543C325.443 438.136 324.276 440.153 322.894 440.949L100.216 569.585C100.03 569.692 99.8593 569.746 99.7083 569.746C99.1523 569.746 98.6653 568.886 98.6653 567.906V415.187C98.6653 413.593 99.8313 411.574 101.211 410.777L323.897 282.19C324.301 281.957 324.588 281.908 324.758 281.908ZM324.758 280.908C324.349 280.908 323.886 281.042 323.397 281.324L100.712 409.911C99.0303 410.882 97.6663 413.245 97.6663 415.187V567.906C97.6663 569.442 98.5193 570.746 99.7093 570.746C100.024 570.746 100.363 570.655 100.715 570.452L323.395 441.815C325.079 440.846 326.444 438.486 326.444 436.543V283.083C326.444 281.705 325.757 280.908 324.758 280.908Z" fill="#E0E0E0"/>
<path d="M95.0533 568.344C95.3833 568.519 97.7523 569.87 98.7903 570.461C98.0903 569.962 97.7213 569.105 97.6693 567.903V425.152L93.7693 422.87V565.699C93.7693 566.878 94.2773 567.932 95.0533 568.344Z" fill="#F0F0F0"/>
<path d="M326.442 283.06C326.43 281.136 325.073 280.357 323.398 281.324L100.712 409.911C99.0303 410.882 97.6663 413.245 97.6663 415.187L97.6693 425.152L326.442 293.058V283.06Z" fill="#5495FC"/>
<g opacity="0.4">
<path d="M323.396 281.323L100.715 409.909C99.8812 410.398 99.1152 411.222 98.5692 412.17L94.6982 409.928C95.2442 408.989 95.9942 408.173 96.8172 407.703L319.506 279.117C320.378 278.609 321.154 278.601 321.72 278.937C322.266 279.272 324.796 280.71 325.438 281.054C324.9 280.796 324.182 280.873 323.396 281.323Z" fill="#5495FC"/>
</g>
<path opacity="0.15" d="M93.7693 422.88L93.7713 412.975C93.7713 411.988 94.1333 410.896 94.6983 409.928L98.5783 412.16C98.0133 413.118 97.6683 414.201 97.6683 415.187V425.15L93.7693 422.88Z" fill="#5495FC"/>
<path d="M301.25 410.423L167.876 487.426C166.647 488.136 165.65 489.862 165.65 491.281V529.517C165.65 530.936 166.647 532.661 167.878 533.369L171.775 535.611C173.005 536.319 174.999 536.317 176.228 535.608L309.584 458.615C310.813 457.905 311.81 456.179 311.811 454.76L311.827 416.513C311.828 415.094 310.831 413.369 309.6 412.661L305.704 410.419C304.473 409.712 302.479 409.714 301.25 410.423Z" fill="#27DEBF"/>
<path opacity="0.5" d="M311.809 416.153C311.655 415.002 310.719 414.58 309.599 415.228L176.23 492.229C175.613 492.579 175.058 493.195 174.657 493.894L166.309 489.072C166.71 488.383 167.265 487.777 167.872 487.427L301.251 410.426C302.475 409.717 304.469 409.706 305.703 410.416L309.599 412.657C310.729 413.305 311.665 414.817 311.809 416.153Z" fill="#5495FC"/>
<path d="M175.85 535.787C174.616 536.311 172.889 536.25 171.779 535.612L167.883 533.371C166.649 532.662 165.652 530.935 165.652 529.516V491.283C165.652 490.563 165.909 489.772 166.31 489.073L174.658 493.895C174.247 494.594 174 495.375 174 496.085V534.328C173.999 535.602 174.801 536.188 175.85 535.787Z" fill="#263238"/>
<path d="M176.227 492.233L309.601 415.229C310.83 414.519 311.826 415.095 311.826 416.514L311.81 454.761C311.809 456.18 310.812 457.906 309.583 458.616L176.227 535.609C174.998 536.319 174.001 535.743 174.001 534.324V496.088C174.002 494.668 174.998 492.942 176.227 492.233Z" fill="#5495FC"/>
<path d="M265.894 430.839L167.871 487.428C167.265 487.778 166.71 488.384 166.308 489.073L174.656 493.895C175.057 493.196 175.612 492.579 176.229 492.23L274.226 435.651L265.894 430.839Z" fill="#455A64"/>
<path d="M274.227 435.652L176.227 492.232C174.998 492.942 174.001 494.668 174.001 496.087V534.323C174.001 535.742 174.997 536.318 176.227 535.608L274.227 479.028V435.652Z" fill="#37474F"/>
<path d="M198.829 487.575L249.396 458.379C251.493 457.168 253.192 458.028 253.192 460.3C253.192 462.571 251.492 465.394 249.395 466.605L198.832 495.798C196.735 497.009 195.034 496.149 195.034 493.879C195.033 491.608 196.732 488.786 198.829 487.575Z" fill="#5495FC"/>
<path d="M209.191 497.237C209.248 497.204 209.298 497.213 209.339 497.263C209.381 497.313 209.402 497.388 209.402 497.49V503.185C209.402 503.759 209.355 504.303 209.26 504.821C209.168 505.337 209.027 505.817 208.838 506.259C208.651 506.701 208.416 507.092 208.136 507.436C207.854 507.778 207.529 508.056 207.159 508.269C206.784 508.486 206.456 508.584 206.178 508.566C205.899 508.546 205.666 508.423 205.479 508.199C205.291 507.974 205.152 507.655 205.06 507.245C204.97 506.835 204.923 506.343 204.923 505.769V500.075C204.923 499.973 204.944 499.874 204.986 499.776C205.027 499.678 205.076 499.611 205.134 499.579L205.768 499.213C205.825 499.179 205.874 499.188 205.917 499.238C205.958 499.288 205.979 499.363 205.979 499.465V505.09C205.979 505.47 206.008 505.777 206.065 506.012C206.121 506.249 206.203 506.422 206.306 506.532C206.41 506.644 206.536 506.697 206.682 506.692C206.828 506.686 206.987 506.633 207.159 506.534C207.331 506.435 207.49 506.303 207.639 506.138C207.788 505.973 207.914 505.777 208.019 505.544C208.123 505.313 208.205 505.046 208.265 504.743C208.325 504.44 208.354 504.098 208.354 503.719V498.095C208.354 497.993 208.375 497.894 208.416 497.796C208.458 497.698 208.507 497.631 208.566 497.598L209.191 497.237Z" fill="#FAFAFA"/>
<path d="M213.113 502.625C213.113 502.525 213.095 502.451 213.058 502.407C213.022 502.363 212.958 502.34 212.867 502.337C212.776 502.334 212.654 502.348 212.504 502.38C212.352 502.412 212.16 502.449 211.926 502.492C211.696 502.532 211.507 502.524 211.356 502.474C211.204 502.422 211.084 502.329 210.993 502.197C210.902 502.064 210.838 501.892 210.801 501.675C210.765 501.46 210.747 501.214 210.747 500.937C210.747 500.659 210.783 500.365 210.856 500.053C210.929 499.743 211.034 499.444 211.172 499.156C211.311 498.868 211.478 498.602 211.676 498.358C211.874 498.115 212.101 497.919 212.356 497.772C212.611 497.625 212.839 497.543 213.04 497.531C213.241 497.516 213.411 497.552 213.552 497.637C213.692 497.723 213.801 497.852 213.879 498.025C213.957 498.198 214.001 498.391 214.012 498.607C214.017 498.706 213.997 498.806 213.953 498.905C213.909 499.004 213.858 499.071 213.8 499.103L213.199 499.45C213.122 499.495 213.062 499.504 213.023 499.476C212.984 499.448 212.942 499.414 212.895 499.376C212.848 499.34 212.786 499.318 212.707 499.312C212.63 499.306 212.512 499.348 212.356 499.438C212.199 499.528 212.062 499.649 211.942 499.801C211.822 499.954 211.761 500.137 211.761 500.35C211.761 500.451 211.776 500.528 211.805 500.582C211.833 500.634 211.887 500.666 211.968 500.674C212.049 500.684 212.162 500.676 212.305 500.654C212.448 500.632 212.633 500.596 212.863 500.548C213.326 500.456 213.653 500.542 213.843 500.807C214.033 501.072 214.129 501.484 214.129 502.038C214.129 502.317 214.09 502.609 214.012 502.918C213.934 503.227 213.82 503.528 213.672 503.823C213.523 504.117 213.342 504.389 213.125 504.639C212.909 504.889 212.665 505.092 212.395 505.247C212.118 505.407 211.876 505.489 211.664 505.495C211.453 505.501 211.274 505.454 211.13 505.352C210.983 505.252 210.872 505.108 210.794 504.921C210.716 504.735 210.674 504.533 210.668 504.314C210.663 504.215 210.683 504.115 210.727 504.016C210.771 503.917 210.821 503.85 210.879 503.816L211.481 503.469C211.559 503.425 211.617 503.423 211.657 503.465C211.695 503.508 211.74 503.555 211.789 503.611C211.838 503.666 211.907 503.7 211.996 503.714C212.084 503.727 212.217 503.683 212.395 503.58C212.473 503.535 212.554 503.479 212.637 503.412C212.72 503.346 212.798 503.271 212.868 503.189C212.937 503.107 212.996 503.017 213.044 502.921C213.089 502.826 213.113 502.727 213.113 502.625Z" fill="#FAFAFA"/>
<path d="M215.15 499.906C215.15 499.388 215.194 498.875 215.283 498.365C215.372 497.856 215.5 497.384 215.666 496.949C215.833 496.515 216.034 496.133 216.271 495.801C216.508 495.47 216.772 495.221 217.064 495.052C217.355 494.883 217.619 494.825 217.857 494.877C218.093 494.931 218.295 495.07 218.462 495.293C218.628 495.516 218.757 495.817 218.849 496.194C218.939 496.573 218.986 496.998 218.986 497.47V498.094C218.986 498.196 218.965 498.297 218.923 498.393C218.882 498.491 218.833 498.558 218.774 498.591L216.165 500.098C216.165 500.311 216.191 500.483 216.24 500.616C216.289 500.751 216.355 500.849 216.439 500.911C216.522 500.974 216.619 501.002 216.728 500.994C216.837 500.987 216.95 500.949 217.064 500.883C217.23 500.788 217.365 500.68 217.47 500.559C217.574 500.439 217.66 500.314 217.728 500.181C217.785 500.075 217.832 499.996 217.869 499.947C217.905 499.898 217.955 499.857 218.018 499.821L218.643 499.46C218.699 499.428 218.75 499.435 218.795 499.482C218.839 499.531 218.859 499.608 218.853 499.713C218.848 499.846 218.808 500.035 218.733 500.283C218.658 500.53 218.544 500.794 218.393 501.076C218.242 501.358 218.056 501.632 217.835 501.898C217.614 502.164 217.357 502.382 217.066 502.55C216.774 502.719 216.51 502.781 216.273 502.739C216.036 502.695 215.834 502.554 215.668 502.317C215.501 502.08 215.374 501.758 215.285 501.35C215.195 500.944 215.15 500.462 215.15 499.906ZM217.065 496.717C216.913 496.805 216.785 496.92 216.678 497.059C216.571 497.201 216.481 497.353 216.408 497.52C216.335 497.688 216.28 497.858 216.24 498.034C216.201 498.21 216.176 498.369 216.165 498.514L217.931 497.495C217.921 497.363 217.901 497.229 217.873 497.091C217.845 496.955 217.798 496.844 217.732 496.756C217.667 496.67 217.58 496.618 217.474 496.6C217.367 496.583 217.231 496.622 217.065 496.717Z" fill="#FAFAFA"/>
<path d="M222.127 493.934C221.815 494.115 221.59 494.368 221.451 494.692C221.313 495.018 221.244 495.458 221.244 496.013V499.624C221.244 499.725 221.223 499.826 221.182 499.923C221.14 500.021 221.091 500.088 221.032 500.12L220.44 500.463C220.383 500.495 220.333 500.487 220.291 500.437C220.249 500.388 220.228 500.312 220.228 500.21V493.738C220.228 493.637 220.249 493.536 220.291 493.439C220.332 493.341 220.382 493.275 220.44 493.241L221.032 492.9C221.09 492.866 221.139 492.875 221.182 492.925C221.223 492.974 221.244 493.05 221.244 493.152V493.472C221.379 493.171 221.524 492.917 221.678 492.707C221.831 492.498 222.032 492.322 222.283 492.177L222.634 491.974C222.691 491.942 222.74 491.95 222.783 492C222.824 492.049 222.845 492.126 222.845 492.227V493.144C222.845 493.246 222.824 493.346 222.783 493.444C222.741 493.542 222.692 493.609 222.634 493.641L222.127 493.934Z" fill="#FAFAFA"/>
<path d="M229.587 493.447C229.644 493.414 229.693 493.423 229.736 493.473C229.777 493.522 229.798 493.599 229.798 493.7V494.687C229.798 494.788 229.777 494.889 229.736 494.986C229.694 495.084 229.645 495.15 229.587 495.183L226.165 497.159C226.107 497.192 226.059 497.183 226.016 497.133C225.975 497.084 225.954 497.008 225.954 496.906V487.934C225.954 487.833 225.975 487.733 226.016 487.635C226.058 487.537 226.106 487.471 226.165 487.438L226.798 487.073C226.855 487.04 226.905 487.049 226.947 487.099C226.989 487.149 227.01 487.223 227.01 487.326V494.936L229.587 493.447Z" fill="#FAFAFA"/>
<path d="M232.656 486.05C232.943 485.884 233.202 485.813 233.434 485.837C233.666 485.86 233.867 485.962 234.035 486.142C234.205 486.322 234.34 486.567 234.441 486.88C234.543 487.191 234.603 487.556 234.618 487.972C234.623 488.052 234.626 488.157 234.626 488.287C234.626 488.415 234.626 488.546 234.626 488.674C234.626 488.805 234.626 488.931 234.626 489.058C234.626 489.182 234.623 489.288 234.618 489.374C234.597 489.812 234.538 490.244 234.438 490.672C234.339 491.1 234.205 491.499 234.035 491.87C233.866 492.24 233.665 492.572 233.434 492.863C233.202 493.154 232.943 493.382 232.656 493.548C232.37 493.713 232.111 493.785 231.879 493.761C231.648 493.737 231.447 493.639 231.279 493.462C231.109 493.287 230.975 493.042 230.876 492.73C230.777 492.417 230.716 492.052 230.695 491.639C230.69 491.559 230.687 491.456 230.684 491.334C230.682 491.209 230.68 491.085 230.68 490.955C230.68 490.824 230.682 490.694 230.684 490.563C230.687 490.432 230.69 490.324 230.695 490.238C230.711 489.802 230.77 489.371 230.871 488.941C230.973 488.512 231.109 488.11 231.279 487.734C231.448 487.358 231.648 487.026 231.879 486.735C232.111 486.443 232.37 486.216 232.656 486.05ZM233.603 488.629C233.587 488.351 233.549 488.135 233.488 487.979C233.428 487.824 233.355 487.716 233.265 487.656C233.177 487.596 233.081 487.576 232.977 487.594C232.873 487.612 232.765 487.653 232.656 487.716C232.548 487.778 232.441 487.862 232.337 487.964C232.233 488.065 232.136 488.198 232.048 488.36C231.96 488.523 231.884 488.716 231.825 488.94C231.766 489.164 231.728 489.425 231.712 489.72C231.707 489.798 231.703 489.893 231.701 490.005C231.698 490.117 231.696 490.234 231.696 490.354C231.696 490.474 231.698 490.591 231.701 490.705C231.703 490.82 231.707 490.908 231.712 490.97C231.728 491.247 231.766 491.464 231.825 491.618C231.884 491.774 231.96 491.881 232.048 491.941C232.136 492.001 232.233 492.022 232.337 492.003C232.441 491.985 232.548 491.943 232.656 491.881C232.765 491.818 232.873 491.736 232.977 491.634C233.081 491.532 233.177 491.401 233.265 491.238C233.354 491.075 233.428 490.882 233.488 490.658C233.548 490.433 233.586 490.173 233.603 489.877C233.607 489.811 233.61 489.718 233.61 489.602C233.61 489.486 233.61 489.367 233.61 489.247C233.61 489.129 233.61 489.012 233.61 488.902C233.61 488.79 233.607 488.7 233.603 488.629Z" fill="#FAFAFA"/>
<path d="M237.679 491.898C237.79 491.836 237.901 491.74 238.016 491.614C238.13 491.488 238.234 491.334 238.327 491.149C238.421 490.966 238.498 490.757 238.558 490.523C238.618 490.289 238.648 490.038 238.648 489.769V489.255C238.606 489.362 238.552 489.484 238.483 489.62C238.416 489.757 238.333 489.895 238.237 490.034C238.141 490.173 238.028 490.307 237.902 490.436C237.774 490.567 237.629 490.677 237.468 490.769C237.207 490.92 236.971 490.966 236.761 490.908C236.549 490.85 236.37 490.711 236.222 490.496C236.073 490.281 235.956 490.002 235.871 489.658C235.785 489.314 235.736 488.932 235.725 488.512C235.72 488.375 235.718 488.216 235.718 488.03C235.718 487.845 235.72 487.683 235.725 487.54C235.736 487.108 235.784 486.671 235.871 486.227C235.956 485.784 236.074 485.37 236.222 484.983C236.371 484.596 236.549 484.251 236.761 483.949C236.971 483.647 237.207 483.422 237.468 483.271C237.629 483.178 237.774 483.12 237.902 483.103C238.028 483.085 238.141 483.09 238.237 483.117C238.333 483.144 238.416 483.188 238.483 483.247C238.551 483.305 238.605 483.364 238.648 483.423V483.103C238.648 483.002 238.668 482.902 238.71 482.804C238.751 482.706 238.8 482.64 238.859 482.607L239.452 482.264C239.509 482.232 239.559 482.24 239.601 482.29C239.643 482.339 239.664 482.416 239.664 482.517V489.031C239.664 490.151 239.487 491.097 239.136 491.87C238.785 492.643 238.299 493.207 237.678 493.565C237.413 493.719 237.167 493.798 236.94 493.805C236.714 493.81 236.517 493.757 236.351 493.645C236.184 493.533 236.052 493.373 235.952 493.166C235.854 492.959 235.798 492.719 235.788 492.448C235.782 492.35 235.802 492.25 235.847 492.151C235.89 492.051 235.941 491.984 235.999 491.951L236.53 491.645C236.603 491.603 236.665 491.611 236.717 491.669C236.769 491.726 236.814 491.781 236.85 491.836C236.917 491.954 237.01 492.031 237.127 492.064C237.247 492.099 237.43 492.043 237.679 491.898ZM236.742 487.051C236.726 487.32 236.726 487.579 236.742 487.83C236.773 488.412 236.878 488.786 237.055 488.946C237.231 489.109 237.448 489.115 237.702 488.968C237.957 488.82 238.172 488.562 238.347 488.193C238.522 487.825 238.622 487.382 238.648 486.867C238.658 486.722 238.664 486.544 238.664 486.33C238.664 486.117 238.658 485.945 238.648 485.812C238.622 485.345 238.522 485.024 238.347 484.846C238.172 484.669 237.957 484.654 237.702 484.802C237.447 484.948 237.23 485.207 237.055 485.573C236.878 485.939 236.774 486.433 236.742 487.051Z" fill="#FAFAFA"/>
<path d="M241.976 478.17C242.033 478.136 242.083 478.145 242.124 478.194C242.166 478.244 242.187 478.321 242.187 478.422V479.505C242.187 479.607 242.166 479.707 242.124 479.805C242.083 479.903 242.033 479.969 241.976 480.003L241.305 480.39C241.248 480.422 241.198 480.414 241.156 480.364C241.114 480.314 241.093 480.238 241.093 480.136V479.053C241.093 478.952 241.114 478.851 241.156 478.753C241.197 478.656 241.247 478.589 241.305 478.557L241.976 478.17ZM242.149 487.555C242.149 487.657 242.128 487.758 242.086 487.854C242.045 487.952 241.995 488.019 241.937 488.052L241.345 488.394C241.288 488.427 241.238 488.418 241.196 488.368C241.154 488.32 241.133 488.243 241.133 488.141V481.67C241.133 481.568 241.154 481.467 241.196 481.371C241.237 481.273 241.287 481.206 241.345 481.173L241.937 480.831C241.994 480.798 242.044 480.807 242.086 480.857C242.128 480.905 242.149 480.981 242.149 481.084V487.555Z" fill="#FAFAFA"/>
<path d="M247.429 484.507C247.429 484.608 247.408 484.709 247.368 484.806C247.326 484.904 247.277 484.97 247.219 485.003L246.625 485.346C246.568 485.378 246.519 485.37 246.476 485.32C246.434 485.271 246.414 485.195 246.414 485.093V481.565C246.414 481.01 246.342 480.607 246.195 480.358C246.049 480.109 245.826 480.071 245.523 480.246C245.247 480.405 245.03 480.698 244.871 481.122C244.712 481.547 244.633 482.038 244.633 482.593V486.121C244.633 486.222 244.612 486.323 244.571 486.42C244.529 486.518 244.48 486.585 244.422 486.617L243.829 486.96C243.772 486.992 243.721 486.984 243.68 486.934C243.638 486.885 243.617 486.808 243.617 486.707V480.235C243.617 480.134 243.638 480.033 243.68 479.936C243.721 479.838 243.771 479.772 243.829 479.738L244.422 479.397C244.479 479.363 244.528 479.372 244.571 479.422C244.612 479.471 244.633 479.548 244.633 479.649V479.969C244.769 479.65 244.927 479.36 245.11 479.097C245.292 478.834 245.508 478.631 245.759 478.487C246.076 478.303 246.342 478.237 246.555 478.29C246.769 478.343 246.94 478.48 247.07 478.701C247.201 478.922 247.293 479.215 247.348 479.576C247.402 479.938 247.429 480.337 247.429 480.772V484.507Z" fill="#FAFAFA"/>
<path d="M297.875 455.402L288.161 461.01L289.666 447.386C288.504 446.772 287.764 445.26 287.764 443.09C287.764 439.221 290.116 434.727 293.018 433.051C295.919 431.376 298.271 433.154 298.271 437.023C298.271 439.193 297.531 441.56 296.369 443.516L297.875 455.402Z" fill="#455A64"/>
<path d="M297.875 455.402L289.326 450.467L288.161 461.01L297.875 455.402Z" fill="#37474F"/>
<path d="M293.019 433.051C291.12 434.147 289.462 436.452 288.539 438.997L296.371 443.519V443.517C297.533 441.561 298.273 439.195 298.273 437.024C298.272 433.155 295.92 431.376 293.019 433.051Z" fill="#37474F"/>
<path d="M245.796 387.704C242.474 385.781 237.884 386.054 232.811 388.983C222.672 394.838 214.453 409.075 214.455 420.783C214.456 426.658 216.527 430.777 219.871 432.685C220.741 433.182 225.463 435.929 226.34 436.436C229.662 438.356 234.25 438.082 239.32 435.155C249.458 429.301 257.676 415.064 257.676 403.355C257.676 397.504 255.622 393.395 252.303 391.477" fill="#27DEBF"/>
<path d="M239.317 392.755C229.179 398.612 220.959 412.847 220.961 424.554C220.962 436.262 229.182 441.008 239.32 435.154C249.458 429.3 257.687 415.063 257.676 403.354C257.666 391.648 249.446 386.902 239.317 392.755Z" fill="#27DEBF"/>
<path d="M249.454 418.731V420.067C246.84 424.529 243.262 428.414 239.318 430.685C235.367 432.963 231.797 433.212 229.182 431.758V428.99C229.182 423.645 232.811 417.357 237.441 414.677L240.106 413.143C242.472 411.777 244.765 411.602 246.569 412.646C248.41 413.707 249.454 415.92 249.454 418.731Z" fill="#27DEBF"/>
<path opacity="0.4" d="M245.796 387.704L252.303 391.475C248.979 389.551 244.389 389.823 239.319 392.753C232.68 396.59 226.864 404.02 223.64 411.979L217.133 408.204C220.357 400.245 226.17 392.815 232.812 388.981C237.885 386.055 242.475 385.781 245.796 387.704Z" fill="white"/>
<path opacity="0.2" d="M226.095 436.293C224.949 435.631 220.673 433.141 219.869 432.683C216.525 430.776 214.453 426.657 214.453 420.783L220.96 424.558C220.964 430.264 222.92 434.317 226.095 436.293Z" fill="black"/>
<path opacity="0.1" d="M217.133 408.205L223.64 411.98C221.939 416.176 220.961 420.517 220.961 424.554V424.557L214.454 420.782C214.454 416.742 215.435 412.398 217.133 408.205Z" fill="black"/>
<path d="M237.01 412.521C236.374 412.521 235.781 412.368 235.244 412.061C234.007 411.346 233.326 409.931 233.326 408.078C233.326 404.685 235.628 400.696 238.569 398.999V398.996C240.168 398.069 241.73 397.954 242.976 398.668C244.213 399.383 244.894 400.798 244.894 402.651C244.894 406.044 242.592 410.033 239.654 411.73C238.742 412.255 237.844 412.521 237.01 412.521Z" fill="white"/>
<path d="M246.569 412.648C244.765 411.604 242.472 411.779 240.106 413.145L237.441 414.679C232.811 417.359 229.182 423.646 229.182 428.992V431.76C231.796 433.213 235.367 432.965 239.318 430.687C243.261 428.416 246.839 424.531 249.454 420.069V418.733C249.454 415.92 248.41 413.707 246.569 412.648Z" fill="white"/>
<path d="M452.154 585.648C452.154 585.648 453.482 573.969 459.291 564.905C465.101 555.841 473.083 550.184 480.531 549.595C487.979 549.006 493.995 555.858 486.025 560.564C478.056 565.27 463.897 570.072 457.381 587.672L452.154 585.648Z" fill="#27DEBF"/>
<path opacity="0.1" d="M452.154 585.648C452.154 585.648 453.482 573.969 459.291 564.905C465.101 555.841 473.083 550.184 480.531 549.595C487.979 549.006 493.995 555.858 486.025 560.564C478.056 565.27 463.897 570.072 457.381 587.672L452.154 585.648Z" fill="#5495FC"/>
<path d="M454.338 582.615C454.311 582.61 454.285 582.603 454.259 582.592C454.055 582.51 453.957 582.278 454.04 582.074C461.9 562.717 476.863 554.634 483.677 553.065C483.89 553.014 484.104 553.15 484.154 553.363C484.203 553.578 484.07 553.791 483.856 553.84C480.829 554.537 476.157 556.552 471.234 560.323C465.302 564.867 459.005 571.961 454.777 582.373C454.705 582.551 454.519 582.648 454.338 582.615Z" fill="#EDF2FA"/>
<path d="M494.124 582.844C493.45 584.364 491.79 585.156 490.245 585.778C488.709 586.394 487.025 587.068 486.191 588.505C484.51 591.409 487.27 595.491 485.465 598.319C484.707 599.504 483.299 600.129 481.914 600.377C480.763 600.592 479.592 600.591 478.425 600.689C477.864 600.677 477.308 600.637 476.766 600.56C475.165 600.328 473.428 600.253 471.961 601.072C469.653 602.369 468.944 605.283 467.543 607.53C465.862 610.22 462.891 611.982 459.769 612.406C458.732 612.543 456.803 612.73 455.746 612.141C455.663 612.095 455.595 612.052 455.528 612.002C455.521 612.001 455.515 611.992 455.509 611.983C455.364 611.819 455.182 611.611 455.103 611.498C455.083 611.479 455.073 611.455 455.062 611.43C454.653 609.924 455.321 608.357 455.347 606.802C455.35 606.704 455.351 606.613 455.345 606.52C455.281 604.712 455.23 602.914 455.187 601.111C455.103 597.793 455.065 594.468 455.088 591.146C455.111 588.989 454.851 586.627 455.764 584.595C456.775 582.36 459.288 582.311 460.238 580.118C460.619 579.244 460.821 578.307 461.189 577.423C462.288 574.831 464.951 572.968 467.769 572.83C472.156 572.607 476.094 576.159 480.476 575.836C481.611 575.747 482.717 575.402 483.835 575.196C487.389 574.531 491.496 575.542 493.494 578.55C494.331 579.807 494.735 581.464 494.124 582.844Z" fill="#5495FC"/>
<path d="M454.704 604.519C454.694 604.517 454.684 604.515 454.674 604.512C454.475 604.459 454.356 604.254 454.409 604.054C460.471 581.31 484.435 578.023 490.042 578.428C490.245 578.444 490.403 578.622 490.388 578.828C490.373 579.034 490.194 579.189 489.988 579.174C484.504 578.778 461.064 581.994 455.132 604.247C455.082 604.437 454.894 604.554 454.704 604.519Z" fill="white"/>
<path d="M481.33 592.994C481.257 592.981 481.188 592.946 481.132 592.889C481.072 592.828 474.96 586.803 464.824 588.295C464.62 588.322 464.429 588.184 464.399 587.979C464.369 587.774 464.511 587.584 464.715 587.554C475.243 586.006 481.601 592.298 481.665 592.362C481.81 592.509 481.809 592.746 481.662 592.891C481.571 592.981 481.446 593.015 481.33 592.994Z" fill="white"/>
<path d="M397.115 311.006L400.297 312.23V305.219C400.297 299.661 404.73 298.329 409.543 301.107C414.356 303.886 418.258 310.644 418.258 316.202V317.22C419.35 316.784 420.76 316.953 422.302 317.844C425.766 319.844 428.573 324.707 428.573 328.706V329.169L433.01 331.731C435.291 333.048 437.14 336.251 437.14 338.884C437.14 341.518 435.291 342.585 433.01 341.268L397.113 320.543C394.832 319.226 392.983 316.024 392.983 313.39C392.985 310.756 394.834 309.689 397.115 311.006Z" fill="#E6E6E6"/>
<path d="M439.706 305.464L445.475 308.795C445.446 308.537 445.426 308.282 445.426 308.031V306.36C445.426 303.386 447.514 302.18 450.09 303.667C451.133 304.269 452.093 305.224 452.87 306.34C453.292 302.6 456.226 301.207 459.79 303.265C463.644 305.49 466.768 310.901 466.768 315.35V317.851C466.768 319.004 466.555 319.974 466.177 320.748L470.969 323.515C472.398 324.34 473.556 326.346 473.556 327.996C473.556 329.646 472.398 330.315 470.969 329.49L439.705 311.44C438.276 310.615 437.118 308.609 437.118 306.959C437.119 305.308 438.277 304.639 439.706 305.464Z" fill="#E6E6E6"/>
<path d="M417.368 457.232C413.168 464.333 409.127 470.502 406.29 473.459C400.903 475.965 388.245 479.817 383.292 480.462C382.414 480.576 381.532 480.352 380.806 479.877C378.859 478.601 377.353 478.394 375.3 477.683C373.693 477.127 373.012 476.359 372.71 476.651C372.322 477.026 371.899 478.093 372.878 479.198C373.37 479.753 374.267 480.36 375.422 481.101C375.422 481.101 371.881 482.046 368.718 481.216C364.431 480.091 362.407 482.152 365.306 486.807C366.344 488.474 370.432 491.143 378.716 490.422C381.103 490.215 384.547 490.015 387.518 489.381C395.464 487.685 404.296 486.042 409.726 484.42C411.096 484.011 413.543 482.426 415 480.765C424.134 470.353 427.159 462.935 431.163 456.193L430.817 445.176C424.344 444.975 420.882 451.289 417.368 457.232Z" fill="#FFA8A7"/>
<path d="M431.934 444.975C431.934 444.975 426.281 443.773 422.032 449.209C417.586 454.898 409.725 468.561 409.725 468.561C409.725 468.561 412.304 475.412 419.243 476.538L430.391 461.48C430.391 461.48 435.67 451.057 431.934 444.975Z" fill="#455A64"/>
<path d="M456.036 598.536H448.769V611.494H456.036V598.536Z" fill="#FFA8A7"/>
<path d="M430.839 597.845L423.576 598.105L423.212 584.392L430.839 584.132V597.845Z" fill="#FFA8A7"/>
<path d="M457.06 486.347C457.06 493.575 455.996 551.745 455.996 551.745C456.165 553.825 458.037 557.66 457.632 565.648C457.081 576.5 456.347 605.016 456.347 605.016C456.347 605.016 452.819 607.163 448.255 605.182C448.255 605.182 442.363 565.221 441.061 554.468C439.925 545.083 437.014 513.948 437.014 513.948L433.075 550.689C433.075 550.689 434.415 556.286 433.976 562.718C433.636 567.692 431.299 593.597 431.299 593.597C431.299 593.597 427.878 596.015 422.908 594.266C422.908 594.266 418.774 555.253 418.69 550.689C418.594 545.486 421.107 486.27 421.107 486.27L457.06 486.347Z" fill="#37474F"/>
<path d="M448.769 607.758V606.676C448.074 606.991 446.458 613.412 443.574 616.151C441.282 618.329 438.155 620.844 437.359 623.272C436.532 625.797 441.714 627.191 443.855 626.796C446.343 626.337 450.657 624.512 451.739 622.82C452.822 621.128 453.329 618.632 454.208 617.393C455.088 616.153 457.116 614.769 457.592 613.334C457.853 612.546 457.543 610.819 457.176 609.361C456.839 608.023 456.474 606.551 456.035 606.677C456.034 606.84 456.035 607.502 456.035 607.502C455.507 608.111 454.048 608.715 452.402 608.781C451.34 608.822 448.76 608.602 448.769 607.758Z" fill="#263238"/>
<path d="M423.499 595.771C423.121 595.785 422.814 596.339 421.982 597.278C420.976 598.412 419.331 599.635 417.707 600.482C414.986 601.901 409.695 604.083 407.301 605.207C405.805 605.909 405.875 607.791 407.421 608.862C408.967 609.933 412.7 610.705 417.183 609.66C419.625 609.091 422.804 606.742 424.816 606.869C426.828 606.996 430.593 606.966 432.078 605.899C433.563 604.833 432.969 602.556 432.549 600.599C432.091 598.463 431.518 595.133 430.839 595.279V596.015C429.965 597.393 425.456 597.954 423.537 596.939L423.499 595.771Z" fill="#263238"/>
<path d="M437.015 513.947C437.015 513.947 431.206 512.243 426.895 507.903C426.895 507.903 428.848 511.711 434.655 515.255L433.413 548.066L437.015 513.947Z" fill="#263238"/>
<path d="M452.991 446.059C452.991 446.059 458.966 447.442 458.562 458.276L457.305 475.534L457.34 501.433C451.996 507.488 428.304 507.045 420.193 500.948C420.193 500.948 421.112 470.298 421.66 458.504C422.049 450.119 423.979 445.898 432.219 444.974L442.353 445.42L452.991 446.059Z" fill="#5495FC"/>
<path d="M445.355 423.535C445.355 429.759 440.511 434.804 434.536 434.804C428.561 434.804 425.024 429.62 423.717 423.535C421.325 412.406 428.561 412.266 434.536 412.266C440.511 412.266 445.355 417.311 445.355 423.535Z" fill="#263238"/>
<path d="M450.875 428.094C450.875 428.094 449.216 436.214 448.55 437.548C447.885 438.882 446.509 439.261 446.509 439.261L446.625 433.549L450.875 428.094Z" fill="#263238"/>
<path d="M448.793 416.461C448.793 416.461 449.983 416.163 451.247 418.138C452.331 419.831 452.577 423.634 450.876 428.094L447.75 428.468L448.793 416.461Z" fill="#263238"/>
<path d="M449.943 418.105L453.776 418.176C453.87 417.076 453.088 416.169 452.029 416.149C450.971 416.13 450.037 417.005 449.943 418.105Z" fill="#263238"/>
<path d="M450.412 417.197L453.252 414.466C452.551 413.654 451.347 413.607 450.563 414.361C449.779 415.114 449.711 416.384 450.412 417.197Z" fill="#263238"/>
<path d="M446.812 428.47C447.439 428.86 448.333 427.606 449.106 426.763C449.879 425.921 452.306 425.125 453.565 427.888C454.848 430.703 452.679 433.38 450.875 434.277C447.65 435.88 446.625 433.549 446.625 433.549L446.364 446.411C441.819 453.441 431.524 453.188 435.225 446.071L435.235 442.156C435.235 442.156 432.133 442.646 430.62 442.403C428.102 441.998 426.518 439.929 425.754 437.09C424.527 432.531 424.061 428.849 425.102 419.883C426.243 410.055 437.218 409.953 443.144 413.838C449.072 417.724 446.812 428.47 446.812 428.47Z" fill="#FFA8A7"/>
<path d="M433.131 418.349C435.753 418.087 438.345 417.554 440.972 417.36C441.541 417.318 442.122 417.293 442.673 417.442C444.686 417.986 444.426 420.326 444.746 421.961C445.296 424.776 445.753 429.548 446.812 429.569C447.127 429.575 448.326 427.504 449.106 426.764C449.611 426.285 449.697 425.252 449.806 424.613C450.006 423.446 450.114 422.263 450.203 421.084C450.279 420.086 450.379 419.07 450.375 418.068C450.37 416.944 450.392 415.8 450.113 414.702C449.859 413.705 449.393 412.959 448.711 412.182C448.645 412.107 448.578 412.033 448.511 411.96C447.218 410.566 445.569 409.521 443.818 408.799C441.305 407.763 438.582 407.35 435.878 407.073C433.174 406.796 430.449 406.646 427.786 406.098C427.631 406.066 427.465 406.034 427.317 406.09C427.085 406.179 426.984 406.448 426.937 406.691C426.702 407.925 427.257 409.275 428.294 409.986C426.482 410.13 424.402 409.186 422.656 408.713C422.362 408.633 422.028 408.558 421.767 408.716C421.587 408.825 421.481 409.025 421.417 409.225C421.269 409.689 421.302 410.19 421.368 410.673C421.563 412.1 422.049 413.51 422.929 414.65C424.195 416.291 426.279 417.771 428.334 418.183C429.957 418.51 431.472 418.514 433.131 418.349Z" fill="#263238"/>
<path d="M435.235 442.157C435.235 442.157 440.855 440.978 442.82 439.89C444.135 439.162 445.218 437.9 445.536 437.091C445.536 437.091 445.168 438.828 443.993 440.392C442.556 442.305 435.235 443.714 435.235 443.714V442.157Z" fill="#F28F8F"/>
<path d="M436.586 427.007C436.586 427.68 437.091 428.224 437.712 428.223C438.334 428.221 438.838 427.674 438.838 427.001C438.838 426.328 438.334 425.784 437.712 425.785C437.091 425.787 436.586 426.334 436.586 427.007Z" fill="#263238"/>
<path d="M438.395 422.15L440.805 423.535C441.16 422.814 440.909 421.919 440.243 421.537C439.577 421.155 438.75 421.429 438.395 422.15Z" fill="#263238"/>
<path d="M435.744 435.11L433.173 436.115C433.427 436.883 434.209 437.28 434.919 437.002C435.63 436.725 435.999 435.878 435.744 435.11Z" fill="#F28F8F"/>
<path d="M426.254 423.182L428.451 421.42C428.003 420.765 427.148 420.628 426.541 421.115C425.935 421.601 425.806 422.527 426.254 423.182Z" fill="#263238"/>
<path d="M427.219 426.673C427.219 427.346 427.723 427.89 428.345 427.888C428.967 427.886 429.471 427.339 429.471 426.666C429.471 425.993 428.967 425.449 428.345 425.45C427.723 425.453 427.219 426 427.219 426.673Z" fill="#263238"/>
<path d="M433.246 425.731L433.115 432.845L429.078 431.919L433.246 425.731Z" fill="#F28F8F"/>
<path d="M337.314 485.276L343.578 481.66L346.061 478.653L339.797 482.27L337.314 485.276Z" fill="#27DEBF"/>
<path opacity="0.4" d="M337.314 485.276L343.578 481.66L346.061 478.653L339.797 482.27L337.314 485.276Z" fill="black"/>
<path d="M354.361 495.118L360.625 491.502L365.861 486.868L359.596 490.484L354.361 495.118Z" fill="#27DEBF"/>
<path opacity="0.4" d="M354.361 495.118L360.625 491.502L365.861 486.868L359.596 490.484L354.361 495.118Z" fill="black"/>
<path d="M407.623 507.615C408.996 509.362 409.998 511.929 410.213 514.432C408.839 512.685 407.838 510.118 407.623 507.615ZM422.186 507.804C420.079 493.452 412.368 479.255 403.177 473.95C398.767 471.4 394.685 471.308 391.416 473.22C390.46 473.775 386.913 475.821 385.515 476.623C385.402 476.685 385.289 476.746 385.186 476.818C384.929 476.962 384.672 477.126 384.425 477.301C383.952 477.63 383.5 478 383.068 478.422C383.006 478.473 382.944 478.545 382.873 478.607C382.688 478.792 382.503 478.998 382.328 479.203C382.112 479.45 381.896 479.707 381.701 479.974C381.29 480.519 380.899 481.105 380.55 481.742C380.375 482.05 380.2 482.379 380.036 482.719L328.52 452.978L322.259 456.586V460.575L322.793 460.883L323.287 461.171V462.014L322.259 462.61V464.933L329.825 480.95L337.309 485.278L339.797 482.266L346.397 486.214L350.19 492.711L354.364 495.117L359.597 490.481L366.022 494.192L368.181 503.095L378.945 509.305C379.49 511.587 380.179 513.818 380.981 515.998C381.053 516.224 381.135 516.45 381.228 516.697C384.806 526.104 390.501 534.153 396.916 537.864C397.739 538.337 398.54 538.728 399.332 539.026C399.785 539.211 400.237 539.355 400.679 539.478C401.08 539.591 401.481 539.684 401.882 539.745C403.208 539.981 404.493 539.971 405.696 539.735C405.871 539.694 406.046 539.653 406.22 539.612C406.467 539.561 406.713 539.489 406.95 539.396C407.135 539.324 407.32 539.252 407.505 539.18C407.7 539.108 407.896 539.015 408.081 538.913C408.266 538.831 408.441 538.738 408.616 538.635C408.708 538.584 408.801 538.532 408.883 538.481C408.924 538.471 408.965 538.44 409.007 538.409C410.436 537.587 413.962 535.551 414.918 535.006C419.678 532.251 422.762 525.27 422.762 515.401C422.761 512.893 422.566 510.344 422.186 507.804Z" fill="#27DEBF"/>
<path d="M405.786 519.721C403.315 518.294 401.311 514.053 401.311 510.248C401.311 506.443 403.315 504.515 405.786 505.942C408.257 507.369 410.261 511.61 410.261 515.415C410.26 519.22 408.257 521.148 405.786 519.721ZM415.925 511.413C413.818 497.072 406.107 482.874 396.916 477.57C392.66 475.113 388.723 474.928 385.515 476.624C385.402 476.686 385.289 476.747 385.186 476.819C384.929 476.963 384.672 477.127 384.425 477.302C383.952 477.631 383.5 478.001 383.068 478.423C383.006 478.474 382.944 478.546 382.873 478.608C382.688 478.793 382.503 478.999 382.328 479.204C382.112 479.451 381.896 479.708 381.701 479.975C381.29 480.52 380.899 481.106 380.55 481.743C380.375 482.051 380.2 482.38 380.036 482.72C379.183 484.468 378.504 486.503 378.052 488.806L322.26 456.587V460.576L322.794 460.884L323.288 461.172V462.015L322.26 462.611V464.934L329.826 480.951L337.31 485.279L339.798 482.267L346.398 486.215L350.191 492.712L354.365 495.118L359.598 490.482L366.023 494.193L368.182 503.096L378.946 509.306C379.491 511.588 380.18 513.819 380.982 515.999C381.054 516.225 381.136 516.451 381.229 516.698C384.807 526.105 390.502 534.154 396.917 537.865C397.74 538.338 398.541 538.729 399.333 539.027C399.786 539.212 400.238 539.356 400.68 539.479C401.081 539.592 401.482 539.685 401.883 539.746C403.209 539.982 404.494 539.972 405.697 539.736C405.872 539.695 406.047 539.654 406.221 539.613C406.468 539.562 406.714 539.49 406.951 539.397C407.136 539.325 407.321 539.253 407.506 539.181C407.701 539.109 407.897 539.016 408.082 538.914C408.267 538.832 408.442 538.739 408.617 538.636C408.709 538.585 408.802 538.533 408.884 538.482C408.925 538.472 408.966 538.441 409.008 538.41C413.572 535.532 416.503 528.654 416.503 519.021C416.501 516.512 416.295 513.962 415.925 511.413Z" fill="#5495FC"/>
<path opacity="0.4" d="M410.26 515.412C410.26 519.216 408.255 521.149 405.788 519.72C403.31 518.291 401.306 514.055 401.306 510.252C401.306 506.449 403.311 504.516 405.788 505.945C406.446 506.325 407.073 506.901 407.618 507.621C407.834 510.119 408.841 512.689 410.209 514.437C410.25 514.764 410.26 515.093 410.26 515.412Z" fill="black"/>
<path opacity="0.4" d="M422.761 515.402C422.761 525.271 419.677 532.252 414.917 535.007C413.961 535.552 410.435 537.587 409.006 538.41C413.57 535.532 416.501 528.654 416.501 519.021C416.501 516.513 416.295 513.963 415.925 511.414C413.818 497.073 406.107 482.875 396.916 477.571C392.66 475.114 388.723 474.929 385.515 476.625C386.913 475.823 390.46 473.777 391.416 473.222C394.685 471.31 398.767 471.402 403.177 473.952C412.368 479.257 420.078 493.454 422.186 507.806C422.566 510.344 422.761 512.893 422.761 515.402Z" fill="#5495FC"/>
<path d="M416.501 519.02C416.501 528.653 413.571 535.531 409.006 538.409C410.435 537.587 413.961 535.551 414.917 535.006C419.677 532.251 422.761 525.27 422.761 515.401C422.761 515.037 422.748 514.67 422.74 514.304C420.589 515.546 418.414 516.801 416.478 517.919C416.487 518.287 416.501 518.655 416.501 519.02Z" fill="#27DEBF"/>
<path opacity="0.1" d="M416.501 519.02C416.501 528.653 413.571 535.531 409.006 538.409C410.435 537.587 413.961 535.551 414.917 535.006C419.677 532.251 422.761 525.27 422.761 515.401C422.761 515.037 422.748 514.67 422.74 514.304C420.589 515.546 418.414 516.801 416.478 517.919C416.487 518.287 416.501 518.655 416.501 519.02Z" fill="black"/>
<path opacity="0.15" d="M378.278 492.918V494.954L322.26 462.611L323.288 462.015V461.172L378.278 492.918Z" fill="black"/>
<path opacity="0.15" d="M378.278 493.761V494.954L322.26 462.611L323.288 462.015V462.005L378.278 493.761Z" fill="black"/>
<path opacity="0.15" d="M405.034 534.189C412.843 531.792 415.538 518.002 411.053 503.389C406.569 488.775 396.602 478.872 388.793 481.268C380.983 483.665 378.288 497.455 382.773 512.068C387.258 526.682 397.225 536.585 405.034 534.189Z" stroke="black" stroke-miterlimit="10"/>
<path opacity="0.4" d="M380.036 482.72C379.183 484.468 378.504 486.503 378.052 488.806L322.26 456.587L328.521 452.979L380.036 482.72Z" fill="#5495FC"/>
<path d="M452.506 485.853C455.432 480.32 458.767 467.9 460.428 461.632C462.787 452.729 458.969 447.127 454.635 446.902C451.917 447.316 442.993 479.791 442.993 479.791C442.004 480.582 428.421 487.465 424.057 489.195C423.284 489.502 422.423 489.489 421.641 489.204C419.545 488.439 418.118 488.584 416.067 488.378C414.461 488.217 413.648 487.646 413.445 487.99C413.185 488.432 413.064 489.535 414.233 490.357C414.821 490.771 415.792 491.14 417.031 491.579C417.031 491.579 414.711 492.383 411.616 492.315C407.421 492.222 405.911 494.045 409.165 498.297C411.204 500.961 414.482 501.801 421.865 499.248C423.992 498.512 426.874 497.082 429.556 496.108C435.102 494.093 436.526 493.875 440.783 492.442C446.926 490.373 451.207 488.308 452.506 485.853Z" fill="#FFA8A7"/>
<path d="M452.991 446.059C455.543 446.408 458.017 446.985 459.501 449.047C460.985 451.109 462.222 454.017 460.738 462.005C459.254 469.993 456.201 478.479 456.201 478.479C456.201 478.479 450.265 481.016 443.95 474.58L448.286 457.801C448.286 457.801 449.028 446.901 452.991 446.059Z" fill="#455A64"/>
<g clip-path="url(#clip1_903_2668)">
<path d="M1429.35 417.802C1462 444.545 1451.19 480.955 1405.93 475.779C1360.67 470.603 1323.16 469.542 1294.9 520.798C1275.68 555.652 1226.55 521.654 1243.65 475.382C1257.3 438.46 1289.3 422.067 1314.81 411.765C1365.15 391.44 1415.78 406.691 1429.35 417.802Z" fill="url(#paint0_radial_903_2668)"/>
<path d="M1234.49 593.203C1222.98 593.203 1213.65 583.968 1213.65 572.575C1213.65 561.183 1222.98 551.948 1234.49 551.948C1246.01 551.948 1255.34 561.183 1255.34 572.575C1255.34 583.968 1246.01 593.203 1234.49 593.203Z" fill="url(#paint1_radial_903_2668)"/>
<path d="M1472.04 578.004C1472.04 578.004 1354.8 536.837 1275.8 613.754C1196.79 690.672 1191.33 772.465 1050.94 775.453C913.321 778.384 918.019 870.635 918.019 870.635H1472.04V578.004Z" fill="url(#paint2_radial_903_2668)"/>
<path d="M1472 706.238C1472 706.238 1244.74 637.952 1159.87 882H1472V706.238Z" fill="url(#paint3_radial_903_2668)"/>
<path d="M821.176 855.417C843.027 871.82 841.424 823.079 869.162 786.911C896.9 750.745 943.476 740.848 921.626 724.445C899.776 708.042 859.576 724.064 831.837 760.231C804.099 796.399 799.326 839.014 821.176 855.417Z" fill="url(#paint4_radial_903_2668)"/>
<path d="M1090.73 687.551C1064.72 704.472 1052.89 732.129 1064.32 749.326C1075.75 766.524 1106.1 766.748 1132.11 749.827C1158.13 732.906 1169.95 705.249 1158.53 688.052C1147.1 670.854 1116.75 670.63 1090.73 687.551Z" fill="url(#paint5_radial_903_2668)"/>
</g>
</g>
<defs>
<radialGradient id="paint0_radial_903_2668" cx="0" cy="0" r="1" gradientUnits="userSpaceOnUse" gradientTransform="translate(1419.39 629.067) rotate(180) scale(298.404 295.22)">
<stop offset="0.0168" stop-color="#5495FC"/>
<stop offset="0.9609" stop-color="#A2FF7B"/>
</radialGradient>
<radialGradient id="paint1_radial_903_2668" cx="0" cy="0" r="1" gradientUnits="userSpaceOnUse" gradientTransform="translate(1419.39 631.194) rotate(180) scale(299.898 296.698)">
<stop offset="0.0168" stop-color="#5495FC"/>
<stop offset="0.9609" stop-color="#A2FF7B"/>
</radialGradient>
<radialGradient id="paint2_radial_903_2668" cx="0" cy="0" r="1" gradientUnits="userSpaceOnUse" gradientTransform="translate(1326.39 832.549) rotate(180) scale(444.72 439.975)">
<stop offset="0.0168" stop-color="#5495FC"/>
<stop offset="0.9609" stop-color="#A2FF7B"/>
</radialGradient>
<radialGradient id="paint3_radial_903_2668" cx="0" cy="0" r="1" gradientUnits="userSpaceOnUse" gradientTransform="translate(1574.27 988.617) rotate(180) scale(622.592 615.949)">
<stop offset="0.0168" stop-color="#5495FC"/>
<stop offset="0.9609" stop-color="#A2FF7B"/>
</radialGradient>
<radialGradient id="paint4_radial_903_2668" cx="0" cy="0" r="1" gradientUnits="userSpaceOnUse" gradientTransform="translate(917.74 849.524) rotate(167.882) scale(170.163 168.508)">
<stop offset="0.0168" stop-color="#5495FC"/>
<stop offset="0.9609" stop-color="#A2FF7B"/>
</radialGradient>
<radialGradient id="paint5_radial_903_2668" cx="0" cy="0" r="1" gradientUnits="userSpaceOnUse" gradientTransform="translate(1312.26 850.252) rotate(180) scale(444.72 439.975)">
<stop offset="0.0168" stop-color="#5495FC"/>
<stop offset="0.9609" stop-color="#A2FF7B"/>
</radialGradient>
<clipPath id="clip0_903_2668">
<rect width="1440" height="854" fill="white"/>
</clipPath>
<clipPath id="clip1_903_2668">
<rect width="1031" height="680" fill="white" transform="matrix(-1 0 0 1 1472 202)"/>
</clipPath>
</defs>
</svg>
